<?xml version="1.0" encoding="utf-8"?>
<!-- Generator: Adobe Illustrator 21.1.0, SVG Export Plug-In . SVG Version: 6.00 Build 0)  -->
<svg version="1.1" id="Calque_1" xmlns="http://www.w3.org/2000/svg" xmlns:xlink="http://www.w3.org/1999/xlink" x="0px" y="0px"
	 viewBox="0 0 324.3 275.8" style="enable-background:new 0 0 324.3 275.8;" xml:space="preserve">
<style type="text/css">
	.st0{fill:#0A0A0D;}
</style>
<path class="st0" d="M314,84.5C301.9,48.3,253.6,0,193.2,0c-20.1,0-32.2,16.1-52.3,16.1s-36.2,8.1-48.3,20.1
	c-8.1,8.1-20.1,12.1-32.2,16.1C36.2,56.3,0,96.6,0,120.7c0,12.1,12.1,16.1,16.1,28.2c4,12.1-12.1,20.1,0,32.2
	c16.1,16.1,36.2,44.3,52.3,52.3s56.4,12.1,76.5,20.1c32.2,12.1,52.3,28.2,80.5,20.1c28.2-8.1,28.2-20.1,48.3-32.2
	C334.1,205.3,330.1,128.8,314,84.5z M267,219.8c-76.5,48.3-229.5-20.1-229.5-104.7c0-32.2,52.3-44.3,68.4-60.4
	c8.1-8.1,8.1-16.1,20.1-20.1c12.1-4,16.1,0,24.2-4c16.1-8.1,32.2-20.1,64.4-12.1C299.2,38.7,335.4,175.5,267,219.8z"/>
<path class="st0" d="M186.6,75.8c-24.2,0-48.3,4-48.3,36.2c0,16.1,20.1,20.1,32.2,32.2c8.1,8.1,16.1,12.1,36.2,4
	C255,128.1,247,75.8,186.6,75.8z"/>
</svg>
