<svg id="Calque_1" data-name="Calque 1" xmlns="http://www.w3.org/2000/svg" viewBox="0 0 597.2 452.28"><title>Oeil_site1</title><path d="M680.6,391.1c-4-16.1,16.1-32.2,16.1-52.3,0-40.3-42.8-63.1-68.4-100.6a232.16,232.16,0,0,0-69.4-66.8c-44.3-28.2-95.6-50-144-33.9-24.2,8.1-20.1,28.2-40.3,32.2-28.2,4-36.2-4-72.5,0-32.2,4-68.4,20.1-84.5,52.3s-4,44.3-16.1,68.4c-24.2,44.3-108.7,32.2-68.4,128.8,12.1,28.2,44.3,52.3,72.5,60.4s44.3,4,72.5,16.1c12.1,4,32.2,36.2,76.5,28.2,24.2-4,48.3,28.2,84.5,40.3,24.2,8.1,32.2,20.1,60.4,20.1,16.1,0,16.1-12.1,36.2-12.1,12.1,0,16.1,8.1,28.2,8.1,28.2,0,60.4-24.2,76.5-36.2,32.2-24.2,56.4-24.2,72.5-56.4C737,435.3,688.7,427.3,680.6,391.1Zm-30,59.4C618.4,486.7,582.2,506.9,550,523c-76.5,36.2-116.8-8.1-173.1-12.1-44.3-4-116.8-60.4-128.8-104.7-12.1-40.3-12.1-72.5-4-104.7,12.1-40.3,8.1-56.4,36.2-80.5,32.2-28.2,80.5-8.1,116.8-32.2,60.4-40.3,127.9-24.5,165.1,0C624.1,229.7,679,325.7,679,349.8c0,16.1-12.1,24.2-12.1,36.2C666.7,402.2,678.8,418.3,650.6,450.5Z" transform="translate(-122.37 -132.02)"/></svg>